<svg width="1024" height="1024" viewBox="0 0 1024 1024" fill="none" xmlns="http://www.w3.org/2000/svg">
<g clip-path="url(#clip0_1_67)">
<path fill-rule="evenodd" clip-rule="evenodd" d="M1024 256C1024 114.615 909.385 0 768 0H256C114.615 0 0 114.615 0 256V768C0 909.385 114.615 1024 256 1024H768C909.385 1024 1024 909.385 1024 768V256ZM384 256V768C384 838.692 326.692 896 256 896C185.308 896 128 838.692 128 768V256C128 185.308 185.308 128 256 128C326.692 128 384 185.308 384 256ZM704 192C633.308 192 576 249.308 576 320C576 390.692 633.308 448 704 448H768C838.692 448 896 390.692 896 320C896 249.308 838.692 192 768 192H704ZM576 704C576 633.308 633.308 576 704 576H768C838.692 576 896 633.308 896 704V768C896 838.692 838.692 896 768 896H704C633.308 896 576 838.692 576 768V704Z" fill="black"/>
</g>
<defs>
<clipPath id="clip0_1_67">
<rect width="1024" height="1024" fill="white"/>
</clipPath>
</defs>
</svg>
