<svg width="1024" height="1024" viewBox="0 0 1024 1024" fill="none" xmlns="http://www.w3.org/2000/svg">
<g clip-path="url(#clip0_4_284)">
<path fill-rule="evenodd" clip-rule="evenodd" d="M0 256C0 114.615 114.615 0 256 0H768C909.385 0 1024 114.615 1024 256V768C1024 909.385 909.385 1024 768 1024H256C114.615 1024 0 909.385 0 768V256ZM404 246V778C404 865.261 333.261 936 246 936C158.739 936 88 865.261 88 778V246C88 158.739 158.739 88 246 88C333.261 88 404 158.739 404 246ZM714 556C626.739 556 556 626.739 556 714V778C556 865.261 626.739 936 714 936H778C865.261 936 936 865.261 936 778V714C936 626.739 865.261 556 778 556H714ZM556 310C556 222.739 626.739 152 714 152H778C865.261 152 936 222.739 936 310C936 397.261 865.261 468 778 468H714C626.739 468 556 397.261 556 310Z" fill="white"/>
</g>
<defs>
<clipPath id="clip0_4_284">
<rect width="1024" height="1024" fill="white"/>
</clipPath>
</defs>
</svg>
